<svg xmlns="http://www.w3.org/2000/svg" width="150" height="24" viewBox="0 0 150 24" fill="none">
<path d="M14.92 6.376C13.336 5.48 11.688 4.936 9.976 4.744V19H6.856V4.744C5.128 4.936 3.472 5.48 1.888 6.376L0.808 3.976C1.928 3.304 3.128 2.8 4.408 2.464C5.704 2.128 7.032 1.96 8.392 1.96C9.752 1.96 11.08 2.128 12.376 2.464C13.672 2.8 14.88 3.304 16 3.976L14.92 6.376ZM17.5461 6.184H20.5461V19H17.5461V6.184ZM19.0581 4.072C18.5141 4.072 18.0581 3.904 17.6901 3.568C17.3221 3.216 17.1381 2.784 17.1381 2.272C17.1381 1.76 17.3221 1.336 17.6901 0.999999C18.0581 0.647999 18.5141 0.472 19.0581 0.472C19.6021 0.472 20.0581 0.639999 20.4261 0.975999C20.7941 1.296 20.9781 1.704 20.9781 2.2C20.9781 2.728 20.7941 3.176 20.4261 3.544C20.0741 3.896 19.6181 4.072 19.0581 4.072ZM31.7556 6.04C33.3716 6.04 34.6676 6.512 35.6436 7.456C36.6196 8.4 37.1076 9.8 37.1076 11.656V19H34.1076V12.04C34.1076 10.92 33.8436 10.08 33.3156 9.52C32.7876 8.944 32.0356 8.656 31.0596 8.656C29.9556 8.656 29.0836 8.992 28.4436 9.664C27.8036 10.32 27.4836 11.272 27.4836 12.52V19H24.4836V6.184H27.3396V7.84C27.8356 7.248 28.4596 6.8 29.2116 6.496C29.9636 6.192 30.8116 6.04 31.7556 6.04ZM53.3213 6.184V17.056C53.3213 21.568 51.1053 23.824 46.6733 23.824C45.5053 23.824 44.3853 23.664 43.3133 23.344C42.2573 23.04 41.3853 22.592 40.6973 22L42.0413 19.744C42.5853 20.208 43.2493 20.576 44.0333 20.848C44.8173 21.12 45.6413 21.256 46.5053 21.256C47.8173 21.256 48.7773 20.936 49.3853 20.296C50.0093 19.672 50.3213 18.704 50.3213 17.392V16.792C49.8413 17.32 49.2573 17.728 48.5693 18.016C47.8813 18.288 47.1373 18.424 46.3373 18.424C44.6253 18.424 43.2733 17.952 42.2813 17.008C41.3053 16.064 40.8173 14.648 40.8173 12.76V6.184H43.8173V12.376C43.8173 13.512 44.0733 14.368 44.5853 14.944C45.1133 15.504 45.8573 15.784 46.8173 15.784C47.8893 15.784 48.7373 15.456 49.3613 14.8C50.0013 14.144 50.3213 13.192 50.3213 11.944V6.184H53.3213ZM64.8573 1.96C66.3613 1.96 67.6733 2.256 68.7933 2.848C69.9133 3.44 70.7773 4.32 71.3853 5.488C72.0093 6.64 72.3213 8.04 72.3213 9.688V19H69.2013V14.68H60.4653V19H57.3933V9.688C57.3933 8.04 57.6973 6.64 58.3053 5.488C58.9293 4.32 59.8013 3.44 60.9213 2.848C62.0413 2.256 63.3533 1.96 64.8573 1.96ZM69.2013 12.064V9.4C69.2013 7.848 68.8173 6.68 68.0493 5.896C67.2813 5.096 66.2093 4.696 64.8333 4.696C63.4573 4.696 62.3853 5.096 61.6172 5.896C60.8493 6.68 60.4653 7.848 60.4653 9.4V12.064H69.2013ZM76.3977 6.184H79.3977V19H76.3977V6.184ZM77.9097 4.072C77.3657 4.072 76.9097 3.904 76.5417 3.568C76.1737 3.216 75.9897 2.784 75.9897 2.272C75.9897 1.76 76.1737 1.336 76.5417 0.999999C76.9097 0.647999 77.3657 0.472 77.9097 0.472C78.4537 0.472 78.9097 0.639999 79.2777 0.975999C79.6457 1.296 79.8297 1.704 79.8297 2.2C79.8297 2.728 79.6457 3.176 79.2777 3.544C78.9257 3.896 78.4697 4.072 77.9097 4.072ZM86.1912 8.056C87.0552 6.712 88.5752 6.04 90.7512 6.04V8.896C90.4952 8.848 90.2632 8.824 90.0552 8.824C88.8872 8.824 87.9752 9.168 87.3192 9.856C86.6632 10.528 86.3352 11.504 86.3352 12.784V19H83.3352V6.184H86.1912V8.056ZM97.5201 19.168C96.1921 19.168 95.1521 18.808 94.4001 18.088C93.6641 17.352 93.2961 16.32 93.2961 14.992V1.192H96.2961V14.776C96.2961 16.056 96.8961 16.696 98.0961 16.696C98.4961 16.696 98.8561 16.616 99.1761 16.456L99.3201 18.856C98.7601 19.064 98.1601 19.168 97.5201 19.168ZM101.359 6.184H104.359V19H101.359V6.184ZM102.871 4.072C102.327 4.072 101.871 3.904 101.503 3.568C101.135 3.216 100.951 2.784 100.951 2.272C100.951 1.76 101.135 1.336 101.503 0.999999C101.871 0.647999 102.327 0.472 102.871 0.472C103.415 0.472 103.871 0.639999 104.239 0.975999C104.607 1.296 104.791 1.704 104.791 2.2C104.791 2.728 104.607 3.176 104.239 3.544C103.887 3.896 103.431 4.072 102.871 4.072ZM115.568 6.04C117.184 6.04 118.48 6.512 119.456 7.456C120.432 8.4 120.92 9.8 120.92 11.656V19H117.92V12.04C117.92 10.92 117.656 10.08 117.128 9.52C116.6 8.944 115.848 8.656 114.872 8.656C113.768 8.656 112.896 8.992 112.256 9.664C111.616 10.32 111.296 11.272 111.296 12.52V19H108.296V6.184H111.152V7.84C111.648 7.248 112.272 6.8 113.024 6.496C113.776 6.192 114.624 6.04 115.568 6.04ZM130.939 16.624C132.331 16.624 133.491 16.16 134.419 15.232L136.003 17.08C135.443 17.768 134.723 18.288 133.843 18.64C132.963 18.992 131.971 19.168 130.867 19.168C129.459 19.168 128.219 18.888 127.147 18.328C126.075 17.768 125.243 16.992 124.651 16C124.075 14.992 123.787 13.856 123.787 12.592C123.787 11.344 124.067 10.224 124.627 9.232C125.203 8.224 125.987 7.44 126.979 6.88C127.987 6.32 129.123 6.04 130.387 6.04C131.587 6.04 132.675 6.304 133.651 6.832C134.643 7.344 135.427 8.088 136.003 9.064C136.579 10.024 136.867 11.152 136.867 12.448L127.051 14.368C127.355 15.104 127.843 15.664 128.515 16.048C129.187 16.432 129.995 16.624 130.939 16.624ZM130.387 8.44C129.283 8.44 128.387 8.8 127.699 9.52C127.027 10.24 126.691 11.208 126.691 12.424V12.448L133.939 11.056C133.731 10.272 133.307 9.64 132.667 9.16C132.043 8.68 131.283 8.44 130.387 8.44ZM143.709 19.168C142.669 19.168 141.653 19.032 140.661 18.76C139.669 18.488 138.877 18.144 138.285 17.728L139.437 15.448C140.013 15.832 140.701 16.144 141.501 16.384C142.317 16.608 143.117 16.72 143.901 16.72C145.693 16.72 146.589 16.248 146.589 15.304C146.589 14.856 146.357 14.544 145.893 14.368C145.445 14.192 144.717 14.024 143.709 13.864C142.653 13.704 141.789 13.52 141.117 13.312C140.461 13.104 139.885 12.744 139.389 12.232C138.909 11.704 138.669 10.976 138.669 10.048C138.669 8.832 139.173 7.864 140.181 7.144C141.205 6.408 142.581 6.04 144.309 6.04C145.189 6.04 146.069 6.144 146.949 6.352C147.829 6.544 148.549 6.808 149.109 7.144L147.957 9.424C146.869 8.784 145.645 8.464 144.285 8.464C143.405 8.464 142.733 8.6 142.269 8.872C141.821 9.128 141.597 9.472 141.597 9.904C141.597 10.384 141.837 10.728 142.317 10.936C142.813 11.128 143.573 11.312 144.597 11.488C145.621 11.648 146.461 11.832 147.117 12.04C147.773 12.248 148.333 12.6 148.797 13.096C149.277 13.592 149.517 14.296 149.517 15.208C149.517 16.408 148.997 17.368 147.957 18.088C146.917 18.808 145.501 19.168 143.709 19.168Z" fill="white"/>
</svg>